{
  "accessors": [
    {
      "bufferView": 2,
      "componentType": 5126,
      "count": 204,
      "max": [
        0.5524420142173767,
        -0.5199530124664307,
        0.13674399256706238
      ],
      "min": [
        -0.5522800087928772,
        -0.7797709703445435,
        -0.13674399256706238
      ],
      "type": "VEC3"
    },
    {
      "bufferView": 2,
      "byteOffset": 2448,
      "componentType": 5126,
      "count": 204,
      "max": [
        0.9999911189079285,
        0.9984702467918396,
        0.9869093298912048
      ],
      "min": [
        -0.9999911189079285,
        -0.99847012758255,
        -0.9869092106819153
      ],
      "type": "VEC3"
    },
    {
      "bufferView": 3,
      "componentType": 5126,
      "count": 204,
      "max": [
        0.6140632629394531,
        0.8011503219604492,
        0.999629557132721,
        1.0
      ],
      "min": [
        -0.981282651424408,
        -0.9963258504867554,
        -0.9999917149543762,
        1.0
      ],
      "type": "VEC4"
    },
    {
      "bufferView": 1,
      "componentType": 5126,
      "count": 204,
      "max": [
        0.5421379804611206,
        0.5300899744033813
      ],
      "min": [
        0.0010000099427998066,
        0.0010000000474974513
      ],
      "type": "VEC2"
    },
    {
      "bufferView": 0,
      "componentType": 5125,
      "count": 840,
      "type": "SCALAR"
    },
    {
      "bufferView": 2,
      "byteOffset": 4896,
      "componentType": 5126,
      "count": 310,
      "max": [
        1.0,
        0.9016039967536926,
        0.09445320069789886
      ],
      "min": [
        -1.0,
        -0.671763002872467,
        -0.09445299953222275
      ],
      "type": "VEC3"
    },
    {
      "bufferView": 2,
      "byteOffset": 8616,
      "componentType": 5126,
      "count": 310,
      "max": [
        0.7211920619010925,
        0.6830127835273743,
        0.9582627415657043
      ],
      "min": [
        -0.7211920619010925,
        -0.7071068286895752,
        -0.9582625031471252
      ],
      "type": "VEC3"
    },
    {
      "bufferView": 3,
      "byteOffset": 3264,
      "componentType": 5126,
      "count": 310,
      "max": [
        0.9999531507492065,
        0.9453020691871643,
        0.8136215209960938,
        1.0
      ],
      "min": [
        -0.9059187173843384,
        -0.94480961561203,
        -0.7181605696678162,
        1.0
      ],
      "type": "VEC4"
    },
    {
      "bufferView": 1,
      "byteOffset": 1632,
      "componentType": 5126,
      "count": 310,
      "max": [
        0.9759320020675659,
        0.9842609763145447
      ],
      "min": [
        0.0010000000474974513,
        0.0010000000474974513
      ],
      "type": "VEC2"
    },
    {
      "bufferView": 0,
      "byteOffset": 3360,
      "componentType": 5125,
      "count": 1092,
      "type": "SCALAR"
    },
    {
      "bufferView": 2,
      "byteOffset": 12336,
      "componentType": 5126,
      "count": 221,
      "max": [
        0.5036960244178772,
        -0.5700740218162537,
        0.10905499756336212
      ],
      "min": [
        -0.5036960244178772,
        -0.9016039967536926,
        -0.10905499756336212
      ],
      "type": "VEC3"
    },
    {
      "bufferView": 2,
      "byteOffset": 14988,
      "componentType": 5126,
      "count": 221,
      "max": [
        0.574148952960968,
        0.999983012676239,
        0.9998270273208618
      ],
      "min": [
        -0.7330480217933655,
        -0.9998840093612671,
        -0.9998270273208618
      ],
      "type": "VEC3"
    },
    {
      "bufferView": 3,
      "byteOffset": 8224,
      "componentType": 5126,
      "count": 221,
      "max": [
        0.9928621053695679,
        0.9988009929656982,
        0.9999998211860657,
        1.0
      ],
      "min": [
        -0.9999598860740662,
        -0.9979158639907837,
        -0.9999912977218628,
        1.0
      ],
      "type": "VEC4"
    },
    {
      "bufferView": 1,
      "byteOffset": 4112,
      "componentType": 5126,
      "count": 221,
      "max": [
        0.984408974647522,
        0.9990000128746033
      ],
      "min": [
        0.13812600076198578,
        0.006274059880524874
      ],
      "type": "VEC2"
    },
    {
      "bufferView": 0,
      "byteOffset": 7728,
      "componentType": 5125,
      "count": 792,
      "type": "SCALAR"
    }
  ],
  "asset": {
    "extras": {
      "author": "Billy Jackman (https://sketchfab.com/billyjackman3d)",
      "license": "CC-BY-4.0 (http://creativecommons.org/licenses/by/4.0/)",
      "source": "https://sketchfab.com/3d-models/ring-blade-fantasy-game-weapon-e65dc6a7abda4626b367d5a5122c3849",
      "title": "Ring Blade - Fantasy Game Weapon"
    },
    "generator": "Sketchfab-12.65.0",
    "version": "2.0"
  },
  "bufferViews": [
    {
      "buffer": 0,
      "byteLength": 10896,
      "name": "floatBufferViews",
      "target": 34963
    },
    {
      "buffer": 0,
      "byteLength": 5880,
      "byteOffset": 10896,
      "byteStride": 8,
      "name": "floatBufferViews",
      "target": 34962
    },
    {
      "buffer": 0,
      "byteLength": 17640,
      "byteOffset": 16776,
      "byteStride": 12,
      "name": "floatBufferViews",
      "target": 34962
    },
    {
      "buffer": 0,
      "byteLength": 11760,
      "byteOffset": 34416,
      "byteStride": 16,
      "name": "floatBufferViews",
      "target": 34962
    }
  ],
  "buffers": [
    {
      "byteLength": 46176,
      "uri": "scene.bin"
    }
  ],
  "images": [
    {
      "uri": "textures/RingBlade_MAT_baseColor.jpeg"
    },
    {
      "uri": "textures/RingBlade_MAT_metallicRoughness.png"
    },
    {
      "uri": "textures/RingBlade_MAT_emissive.jpeg"
    },
    {
      "uri": "textures/RingBlade_MAT_normal.png"
    }
  ],
  "materials": [
    {
      "doubleSided": true,
      "emissiveFactor": [
        1.0,
        1.0,
        1.0
      ],
      "emissiveTexture": {
        "index": 2
      },
      "name": "RingBlade_MAT",
      "normalTexture": {
        "index": 3
      },
      "occlusionTexture": {
        "index": 1
      },
      "pbrMetallicRoughness": {
        "baseColorTexture": {
          "index": 0
        },
        "metallicRoughnessTexture": {
          "index": 1
        }
      }
    }
  ],
  "meshes": [
    {
      "name": "defaultMaterial",
      "primitives": [
        {
          "attributes": {
            "NORMAL": 1,
            "POSITION": 0,
            "TANGENT": 2,
            "TEXCOORD_0": 3
          },
          "indices": 4,
          "material": 0,
          "mode": 4
        }
      ]
    },
    {
      "name": "defaultMaterial",
      "primitives": [
        {
          "attributes": {
            "NORMAL": 6,
            "POSITION": 5,
            "TANGENT": 7,
            "TEXCOORD_0": 8
          },
          "indices": 9,
          "material": 0,
          "mode": 4
        }
      ]
    },
    {
      "name": "defaultMaterial",
      "primitives": [
        {
          "attributes": {
            "NORMAL": 11,
            "POSITION": 10,
            "TANGENT": 12,
            "TEXCOORD_0": 13
          },
          "indices": 14,
          "material": 0,
          "mode": 4
        }
      ]
    }
  ],
  "nodes": [
    {
      "children": [
        1
      ],
      "matrix": [
        0.33560580015182495,
        0.0,
        0.0,
        0.0,
        0.0,
        7.451945730526098e-17,
        -0.33560580015182495,
        0.0,
        0.0,
        0.33560580015182495,
        7.451945730526098e-17,
        0.0,
        0.0,
        0.0,
        0.0,
        1.0
      ],
      "name": "Sketchfab_model"
    },
    {
      "children": [
        2,
        4,
        6
      ],
      "matrix": [
        1.0,
        0.0,
        0.0,
        0.0,
        0.0,
        -4.371139006309477e-08,
        0.999999999999999,
        0.0,
        0.0,
        -0.999999999999999,
        -4.371139006309477e-08,
        0.0,
        0.0,
        0.0,
        0.0,
        1.0
      ],
      "name": "Collada visual scene group"
    },
    {
      "children": [
        3
      ],
      "name": "Rings_low"
    },
    {
      "mesh": 0,
      "name": "defaultMaterial"
    },
    {
      "children": [
        5
      ],
      "name": "Blade_low"
    },
    {
      "mesh": 1,
      "name": "defaultMaterial"
    },
    {
      "children": [
        7
      ],
      "name": "Handle_low"
    },
    {
      "mesh": 2,
      "name": "defaultMaterial"
    }
  ],
  "samplers": [
    {
      "magFilter": 9729,
      "minFilter": 9987,
      "wrapS": 10497,
      "wrapT": 10497
    }
  ],
  "scene": 0,
  "scenes": [
    {
      "name": "Sketchfab_Scene",
      "nodes": [
        0
      ]
    }
  ],
  "textures": [
    {
      "sampler": 0,
      "source": 0
    },
    {
      "sampler": 0,
      "source": 1
    },
    {
      "sampler": 0,
      "source": 2
    },
    {
      "sampler": 0,
      "source": 3
    }
  ]
}
